<?xml version="1.0" standalone="no"?>
<!DOCTYPE svg PUBLIC "-//W3C//DTD SVG 20010904//EN"
 "http://www.w3.org/TR/2001/REC-SVG-20010904/DTD/svg10.dtd">
<svg version="1.0" xmlns="http://www.w3.org/2000/svg"
 width="278.000000pt" height="278.000000pt" viewBox="0 0 278.000000 278.000000"
 preserveAspectRatio="xMidYMid meet">
<metadata>
Created by potrace 1.11, written by Peter Selinger 2001-2013
</metadata>
<g transform="translate(0.000000,278.000000) scale(0.100000,-0.100000)"
fill="#000000" stroke="none">
<path d="M1327 2544 c-1 -1 -33 -5 -72 -9 -370 -35 -712 -263 -906 -603 -52
-90 -119 -282 -122 -348 l-2 -48 43 -12 c23 -7 57 -15 75 -18 17 -3 59 -10 92
-16 147 -25 463 -32 670 -17 97 8 116 10 197 22 21 2 59 7 85 10 27 4 82 10
123 15 76 9 464 6 510 -3 14 -3 45 -8 70 -11 146 -19 408 -94 445 -127 22 -21
26 -4 20 81 -14 213 -103 445 -238 620 -225 293 -551 454 -940 464 -27 1 -49
0 -50 0z"/>
<path d="M192 1301 c-1 -52 28 -80 132 -131 105 -52 222 -82 371 -98 134 -14
440 -7 543 13 9 1 37 6 62 10 25 4 54 9 65 12 31 6 215 6 265 -1 135 -20 332
-91 430 -156 25 -16 43 -30 40 -30 -3 0 -37 11 -76 24 -251 85 -528 81 -819
-14 -269 -87 -495 -118 -685 -95 -59 7 -196 49 -217 67 -22 18 -15 1 37 -91
186 -330 458 -531 806 -595 136 -26 387 -26 498 -2 103 23 269 94 371 159 108
68 117 76 93 81 -77 17 -179 43 -288 73 -367 102 -558 114 -784 48 -45 -13
-82 -22 -83 -21 -6 5 140 78 194 97 121 42 219 56 373 53 80 -2 156 -6 170 -9
14 -3 111 -8 215 -10 201 -5 283 5 400 45 115 39 148 85 213 290 50 160 53
144 -31 179 -85 35 -219 75 -303 90 -33 6 -68 13 -79 15 -25 5 -117 17 -158
21 -49 5 -379 6 -407 1 -14 -2 -56 -7 -93 -11 -37 -3 -78 -8 -90 -11 -28 -5
-143 -17 -292 -31 -248 -22 -657 4 -806 51 -62 19 -67 18 -67 -23z"/>
</g>
</svg>
